# xmcd
#
# Track frame offsets:
#  150
#  31651
#  63143
#  98816
#  129603
#  156762
#  177089
#  203964
#  231974
#  257014
#  285047
#  307531
#
# Disc length: 4319 seconds
#
# Revision: 0
# Processed by: cddbd v1.5.2PL0 Copyright (c) Steve Scherf et al.
# Submitted via: AltoMP3_Maker 3.0
#
DISCID=8c10dd0c
DTITLE=FREESTLE - Freestyle's Ultimate Collection, Vol. 22
DYEAR=1900
DGENRE=
TTITLE0=Now and Forever
TTITLE1=Naomi
TTITLE2=Change
TTITLE3=Foolish Pride
TTITLE4=I Want U
TTITLE5=Open Up Your Heart
TTITLE6=Midi Jungle
TTITLE7=Tender Love
TTITLE8=When The Shades Pull Down
TTITLE9=I'm Gonna Luv U
TTITLE10=Don't Go
TTITLE11=Let Me Go
EXTD=
EXTT0=
EXTT1=
EXTT2=
EXTT3=
EXTT4=
EXTT5=
EXTT6=
EXTT7=
EXTT8=
EXTT9=
EXTT10=
EXTT11=
PLAYORDER=
